<svg width="22" height="22" viewBox="0 0 22 22" fill="none" xmlns="http://www.w3.org/2000/svg">
<path d="M11 11.2501C10.56 11.2501 10.12 11.1401 9.72 10.9301L3.21 7.4201C2.62 7.1001 2.25 6.4701 2.25 5.7701C2.25 5.0701 2.62 4.4401 3.21 4.1201L9.72 0.610098C10.52 0.180098 11.48 0.180098 12.27 0.610098L18.78 4.1201C19.37 4.4401 19.74 5.0701 19.74 5.7701C19.74 6.4701 19.37 7.1001 18.78 7.4201L12.27 10.9301C11.88 11.1501 11.44 11.2501 11 11.2501ZM11 1.7801C10.81 1.7801 10.61 1.8301 10.43 1.9301L3.93 5.4301C3.76 5.5201 3.75 5.7101 3.75 5.7701C3.75 5.8301 3.76 6.0201 3.93 6.1001L10.44 9.6101C10.8 9.8001 11.21 9.8001 11.57 9.6101L18.08 6.1001C18.24 6.0101 18.26 5.8201 18.26 5.7701C18.26 5.7101 18.25 5.5201 18.08 5.4401L11.57 1.9301C11.39 1.8301 11.19 1.7801 11 1.7801ZM8.78 21.72C8.5 21.72 8.21 21.65 7.95 21.52L1.89 18.5C0.88 17.99 0.25 16.97 0.25 15.84V10.12C0.25 9.47 0.58 8.88001 1.13 8.54001C1.69 8.20001 2.36 8.17001 2.94 8.46001L9 11.48C10.01 11.99 10.64 13 10.64 14.14V19.86C10.64 20.51 10.31 21.1 9.76 21.44C9.46 21.63 9.12 21.72 8.78 21.72ZM2.11 9.76C2.03 9.76 1.96 9.79 1.92 9.81C1.86 9.85 1.75 9.94 1.75 10.12V15.84C1.75 16.4 2.06 16.91 2.56 17.16L8.61 20.19C8.77 20.27 8.9 20.21 8.96 20.18C9.02 20.14 9.13 20.05 9.13 19.87V14.15C9.13 13.59 8.82 13.08 8.32 12.83L2.27 9.8C2.21 9.77 2.16 9.76 2.11 9.76ZM13.2194 21.72C12.8794 21.72 12.5394 21.63 12.2394 21.44C11.6894 21.1 11.3594 20.51 11.3594 19.86V14.14C11.3594 13.01 11.9894 11.99 12.9994 11.48L19.0494 8.45C19.6294 8.16 20.3094 8.19 20.8594 8.53C21.4094 8.87 21.7394 9.46 21.7394 10.11V15.83C21.7394 16.96 21.1094 17.98 20.0994 18.49L14.0494 21.52C13.7894 21.66 13.4994 21.72 13.2194 21.72ZM19.8894 9.76C19.8394 9.76 19.7894 9.77 19.7294 9.8L13.6794 12.83C13.1794 13.08 12.8694 13.58 12.8694 14.15V19.87C12.8694 20.05 12.9794 20.14 13.0394 20.18C13.0994 20.22 13.2294 20.27 13.3894 20.19L19.4394 17.16C19.9394 16.91 20.2494 16.4 20.2494 15.84V10.12C20.2494 9.94 20.1394 9.85 20.0794 9.81C20.0394 9.79 19.9694 9.76 19.8894 9.76Z" fill="#9A9A9A"/>
</svg>
