<svg width="18" height="22" viewBox="0 0 18 22" fill="none" xmlns="http://www.w3.org/2000/svg">
<path fill-rule="evenodd" clip-rule="evenodd" d="M3.77466 7.81494C3.77466 5.47173 5.31613 3.48313 7.4387 2.80952C8.17973 2.60227 8.97791 2.54373 9.82147 2.64918L9.82425 2.64952C10.0716 2.67951 10.3161 2.72954 10.5586 2.79524C12.7031 3.45598 14.2747 5.4621 14.2747 7.81494V10.7049C14.2747 11.1001 14.3561 11.5556 14.4689 11.967C14.582 12.3793 14.743 12.8068 14.9351 13.1397L14.9349 13.1398L14.9422 13.1518L16.0916 15.0608L16.0919 15.0613C16.5056 15.7517 16.17 16.6446 15.4193 16.8928L15.417 16.8936C13.6913 17.4702 11.909 17.8073 10.1172 17.905H7.92214C6.13083 17.8074 4.34909 17.4704 2.62377 16.8941C2.167 16.7391 1.90417 16.4539 1.79424 16.157C1.68456 15.8608 1.69833 15.4755 1.94719 15.0618L1.9473 15.0616L3.09719 13.1518L3.09719 13.1518L3.09887 13.149C3.29916 12.813 3.46387 12.3825 3.57858 11.9693C3.69324 11.5563 3.77466 11.1003 3.77466 10.7049V7.81494ZM5.18696 19.0931C4.16126 18.9088 3.14531 18.6498 2.147 18.3163L2.14421 18.3153C1.30181 18.0302 0.670049 17.4407 0.38758 16.6779C0.104784 15.9141 0.200986 15.0545 0.662023 14.2883L0.662136 14.2881L1.81045 12.3809L1.81121 12.3796C1.92071 12.1955 2.04067 11.9016 2.13324 11.5681C2.22609 11.2336 2.27466 10.9196 2.27466 10.7049V7.81494C2.27466 4.93333 4.08617 2.46987 6.63107 1.50265C7.09854 0.661241 7.9962 0.0949707 9.0245 0.0949707C10.0541 0.0949707 10.9528 0.662719 11.4197 1.50594C13.9598 2.47693 15.7747 4.94315 15.7747 7.81494V10.7049C15.7747 10.9198 15.8233 11.2343 15.9155 11.5703C16.0065 11.9023 16.1241 12.1973 16.2312 12.3847L17.3772 14.2881L17.3778 14.2891C18.2834 15.7983 17.5595 17.7644 15.8912 18.3167C14.8833 18.6534 13.8574 18.914 12.8216 19.0987C12.3108 20.7204 10.7893 21.905 9.00456 21.905C7.91122 21.905 6.89789 21.4517 6.17791 20.7317C5.72865 20.2824 5.38323 19.719 5.18696 19.0931Z" fill="#626266"/>
</svg>
